# xmcd
#
# Track frame offsets: 
#        150
#        13905
#        27418
#        38897
#        51749
#        66968
#        78509
#        90766
#        101031
#        113051
#        125287
#        136789
#        150702
#        165558
#        179194
#        190300
#        201939
#        213357
#        224131
#        237201
#        251200
#        266078
#        279336
#        291170
#        305363
#
# Disc length: 4239 seconds
#
# Revision: 1
# Processed by: cddbd v1.5.2PL0 Copyright (c) Steve Scherf et al.
# Submitted via: ExactAudioCopyFreeDBPlugin 1.0
#
DISCID=7e108d19
DTITLE=Muddy Waters - The Best of Muddy Waters Disc 2
DYEAR=2009
DGENRE=Blues
TTITLE0=I'm Ready
TTITLE1=Rollin' and Tumblin' Pt. 1
TTITLE2=Rollin' and Tumblin' Pt. 2
TTITLE3=I Just Want To Make Love To You
TTITLE4=They Call Me Muddy Waters
TTITLE5=Gypsy Woman
TTITLE6=I Can't Be Satisfied
TTITLE7=Mean Red Spider
TTITLE8=Long Distance Call
TTITLE9=Good Lookin' Woman
TTITLE10=Hard Day Blues
TTITLE11=Screamin' And Cryin'
TTITLE12=Still A Fool
TTITLE13=Sad Letter Blues
TTITLE14=Muddy Jumps One
TTITLE15=Mean Disposition
TTITLE16=Little Anna Mae
TTITLE17=Stand There Trembling
TTITLE18=Louisiana Blues
TTITLE19=Where's My Woman Been
TTITLE20=Streamline Woman
TTITLE21=Walking Blues
TTITLE22=You're Gonna Miss Me (When I'm Dead and Gone)
TTITLE23=I Feel Like Going Home
TTITLE24=Train Fare Home Blues
EXTD=
EXTT0=
EXTT1=
EXTT2=
EXTT3=
EXTT4=
EXTT5=
EXTT6=
EXTT7=
EXTT8=
EXTT9=
EXTT10=
EXTT11=
EXTT12=
EXTT13=
EXTT14=
EXTT15=
EXTT16=
EXTT17=
EXTT18=
EXTT19=
EXTT20=
EXTT21=
EXTT22=
EXTT23=
EXTT24=
PLAYORDER=
